<?xml version="1.0" encoding="UTF-8"?>
<svg version="1.1" xmlns="http://www.w3.org/2000/svg" width="512" height="512">
<path d="M0 0 C5.18088564 3.12420136 9.1832105 7.39917985 11.44140625 13.05859375 C11.66845703 16.26660156 11.66845703 16.26660156 11.63671875 20.01171875 C11.63388885 20.67194031 11.63105896 21.33216187 11.62814331 22.01239014 C11.6169904 24.11131272 11.59189571 26.20980117 11.56640625 28.30859375 C11.55637009 29.7356709 11.54724535 31.16275477 11.5390625 32.58984375 C11.51706736 36.07956703 11.48257161 39.56903798 11.44140625 43.05859375 C13.39433594 43.24228516 13.39433594 43.24228516 15.38671875 43.4296875 C51.64490399 47.50006167 85.95269764 69.98857532 108.44140625 98.05859375 C119.64168066 112.75411985 128.15062668 129.18463627 133.87890625 146.74609375 C134.10175293 147.42019287 134.32459961 148.09429199 134.55419922 148.78881836 C138.80705785 162.85079542 139.88823147 177.25168293 139.91796875 191.84375 C139.93235135 193.48124923 139.94812066 195.11873679 139.96517944 196.75621033 C140.00648033 201.0155708 140.03182255 205.27485893 140.05267334 209.53436279 C140.08885714 216.34994335 140.15051073 223.16534339 140.21116257 229.9807415 C140.22980434 232.32277808 140.24184705 234.66476686 140.25259399 237.0068512 C140.33504222 250.53919021 140.45216462 264.25194332 143.12890625 277.55859375 C143.38945801 278.87476685 143.38945801 278.87476685 143.65527344 280.2175293 C149.19362259 306.72145752 162.9461253 331.91212029 182.28125 350.8359375 C183.16643311 351.70395996 184.05161621 352.57198242 184.96362305 353.46630859 C186.74509398 355.20010568 188.53908534 356.92115567 190.34692383 358.62744141 C198.16969742 366.20057593 203.46880083 374.07456014 203.73388672 385.21533203 C203.84242527 398.25848864 201.01782968 407.19076942 191.81640625 416.74609375 C184.85443388 423.19236446 176.65449579 426.17942424 167.26119041 426.19002151 C165.98447043 426.19386266 164.70775044 426.1977038 163.39234197 426.20166135 C161.97252928 426.2008811 160.55271663 426.20000231 159.13290405 426.19903564 C157.62690105 426.20161924 156.12089874 426.20463239 154.61489737 426.20803905 C150.47026145 426.21611306 146.32564285 426.21789884 142.18099999 426.21863651 C137.71321157 426.2204864 133.24543215 426.22803346 128.77764893 426.23477173 C119.00479999 426.24835895 109.23195515 426.25438052 99.45909834 426.25878239 C93.35695401 426.26154444 87.25481126 426.26578176 81.152668 426.27028656 C64.25830624 426.28248028 47.36394576 426.29277904 30.4695797 426.29616165 C28.84734528 426.296491 28.84734528 426.296491 27.19233844 426.296827 C25.56621249 426.29715442 25.56621249 426.29715442 23.9072355 426.29748845 C21.71045518 426.29793192 19.51367485 426.29837848 17.31689453 426.29882812 C16.22721464 426.29904955 15.13753474 426.29927098 14.01483424 426.29949912 C-3.63825864 426.30344635 -21.29131022 426.32089762 -38.94438715 426.34418765 C-57.0677026 426.36790506 -75.19099733 426.3803637 -93.31432855 426.38152957 C-103.49019073 426.38244617 -113.66599911 426.3881946 -123.84184647 426.40634918 C-132.50784287 426.42175549 -141.17376886 426.42686753 -149.83977635 426.41861108 C-154.26022773 426.41470632 -158.68053732 426.41562565 -163.10097122 426.42966843 C-167.15137667 426.44241783 -171.20153395 426.44120075 -175.2519391 426.42907771 C-176.71363215 426.4271225 -178.17534284 426.43019103 -179.63701113 426.43892208 C-192.70033114 426.51198435 -202.49660947 424.75079529 -212.55859375 416.05859375 C-220.30396322 408.20955776 -223.71374069 399.52714606 -224.05859375 388.55859375 C-223.64386027 374.94151131 -217.82198744 365.94912676 -208.3359375 356.69140625 C-206.66627318 355.15751684 -204.9462894 353.73340548 -203.18359375 352.30859375 C-198.27898121 348.15769672 -194.47298968 343.12352641 -190.55859375 338.05859375 C-189.76324219 337.0634375 -188.96789062 336.06828125 -188.1484375 335.04296875 C-160.61216324 299.50840181 -160.13499783 257.8444768 -160.05328369 215.09295654 C-160.04161505 209.62300907 -160.01769185 204.15336061 -159.97859192 198.68353844 C-159.96533871 196.17192491 -159.96912961 193.66075675 -159.97399902 191.14912415 C-159.83416993 149.52848047 -143.07082639 111.35650188 -113.578125 82.0390625 C-95.99916931 65.1545482 -73.91227313 53.43317361 -50.62109375 46.68359375 C-49.75734131 46.43270996 -48.89358887 46.18182617 -48.00366211 45.92333984 C-42.51701847 44.4067582 -37.23017625 43.55077952 -31.55859375 43.05859375 C-31.58477783 42.26275879 -31.61096191 41.46692383 -31.63793945 40.64697266 C-31.74276372 36.99271904 -31.80719184 33.33878296 -31.87109375 29.68359375 C-31.93393555 27.80607422 -31.93393555 27.80607422 -31.99804688 25.890625 C-32.10268372 17.89636972 -31.35822263 11.647583 -26.55859375 5.05859375 C-19.5471526 -1.58356979 -9.10960437 -3.3517781 0 0 Z " fill="#220037" transform="translate(265.55859375,0.94140625)"/>
<path d="M0 0 C1.18207031 -0.02835938 2.36414063 -0.05671875 3.58203125 -0.0859375 C11.20656518 0.88881332 15.92522148 5.64159674 21.0625 10.9375 C21.67327393 11.55955322 22.28404785 12.18160645 22.91333008 12.82250977 C28.01731754 18.08020336 32.74407887 23.54497936 37.1875 29.375 C37.61095703 29.92736328 38.03441406 30.47972656 38.47070312 31.04882812 C45.20221688 39.87243825 51.33585225 48.98218096 57.05273438 58.49316406 C58.08810081 60.21016158 59.14453195 61.91441186 60.203125 63.6171875 C82.91512522 101.37819599 93.71093549 146.87967149 94.4375 190.6875 C94.46976685 191.7997998 94.46976685 191.7997998 94.50268555 192.93457031 C94.53966099 199.16039771 93.21808307 204.40277349 89.6796875 209.58203125 C84.66437648 214.56099943 79.78008251 217.2778759 72.6015625 217.4296875 C64.07540641 216.84079384 59.3008338 213.92180233 53.703125 207.60546875 C50.58075866 203.01043994 49.92819254 198.27105275 49.6953125 192.81640625 C49.6324707 191.55489746 49.56962891 190.29338867 49.50488281 188.99365234 C49.47414673 188.33210144 49.44341064 187.67055054 49.41174316 186.98895264 C46.71454855 131.23531917 25.19465188 80.34722918 -13.24609375 39.80859375 C-18.46115081 34.30646933 -21.56084955 29.58659971 -21.93359375 21.8671875 C-21.57684584 14.34095741 -18.72924847 9.07832785 -13.25 4 C-8.64213383 0.92808922 -5.63772506 0.06108044 0 0 Z " fill="#220037" transform="translate(396.8125,15.625)"/>
<path d="M0 0 C5.27888187 2.76399882 9.11904797 7.62440029 12.11328125 12.66015625 C13.74265863 19.66647898 13.35631165 26.04528072 9.73828125 32.34765625 C7.5543299 35.15897574 5.17040226 37.75024546 2.73828125 40.34765625 C-35.53096214 81.66991906 -56.2290244 133.27399357 -58.40356445 189.51635742 C-58.79242456 197.4632339 -59.69882633 204.35868597 -65.15625 210.46875 C-71.87649759 215.08122136 -77.57384774 217.01294398 -85.765625 215.953125 C-92.88186828 214.2269627 -97.57418712 209.70285126 -101.34448242 203.59301758 C-103.42527145 198.49932137 -102.60336382 192.47194965 -102.57421875 187.03515625 C-102.57239594 186.34059326 -102.57057312 185.64603027 -102.56869507 184.93041992 C-102.51262235 172.21962859 -101.50823001 159.86554116 -99.26171875 147.34765625 C-99.0282373 145.99776611 -99.0282373 145.99776611 -98.79003906 144.62060547 C-89.63743812 93.25825507 -62.50256168 34.10586097 -20.26171875 1.34765625 C-14.67085319 -2.21466517 -6.19432604 -1.78661908 0 0 Z " fill="#220037" transform="translate(123.26171875,16.65234375)"/>
<path d="M0 0 C52.14 0 104.28 0 158 0 C151.19818325 23.80635864 139.68216818 42.53354375 117.89550781 54.98632812 C98.66469237 65.27050454 74.74237356 67.69007496 53.76953125 61.453125 C33.10024079 53.90519676 15.9507355 39.79814042 6 20 C0 6.6052356 0 6.6052356 0 0 Z " fill="#220037" transform="translate(177,448)"/>
</svg>
